<svg xmlns="http://www.w3.org/2000/svg" version="1.1" xmlns:xlink="http://www.w3.org/1999/xlink" xmlns:svgjs="http://svgjs.dev/svgjs" width="1500" height="215" viewBox="0 0 1500 215"><g transform="matrix(1,0,0,1,-0.9090909090909918,0.233522799730423)"><svg viewBox="0 0 396 57" data-background-color="#efe1c6" preserveAspectRatio="xMidYMid meet" height="215" width="1500" xmlns="http://www.w3.org/2000/svg" xmlns:xlink="http://www.w3.org/1999/xlink"><g id="tight-bounds" transform="matrix(1,0,0,1,0.2400000000000091,-0.06191069574248331)"><svg viewBox="0 0 395.52 57.123821391484945" height="57.123821391484945" width="395.52"><g><svg viewBox="0 0 395.52 57.123821391484945" height="57.123821391484945" width="395.52"><g><svg viewBox="0 0 395.52 57.123821391484945" height="57.123821391484945" width="395.52"><g id="textblocktransform"><svg viewBox="0 0 395.52 57.123821391484945" height="57.123821391484945" width="395.52" id="textblock"><g><svg viewBox="0 0 395.52 57.123821391484945" height="57.123821391484945" width="395.52"><g transform="matrix(1,0,0,1,0,0)"><svg width="395.52" viewBox="3.78 -33.13 288.87 41.730000000000004" height="57.123821391484945" data-palette-color="#1c70ec"><path d="M15.65-10.63L6.48-10.63 6.48-14.08 15.55-14.08Q18.82-14.08 20.3-15.71 21.78-17.35 21.78-20.23L21.78-20.23 21.78-22.4Q21.78-25.33 20.31-26.93 18.85-28.53 15.6-28.53L15.6-28.53 6.45-28.53 6.45-31.95 15.68-31.95Q21.03-31.95 23.46-29.44 25.9-26.93 25.9-22.53L25.9-22.53 25.9-20.13Q25.9-15.68 23.44-13.15 20.98-10.63 15.65-10.63L15.65-10.63ZM7.88 0L3.78 0 3.78-31.95 7.85-31.95 7.85-13.05 7.88-11.2 7.88 0ZM35.17-14.93L35.17-14.93 34.25-18.05 35.25-18.1Q36.05-21.2 38-22.99 39.95-24.78 43.17-24.78L43.17-24.78Q43.97-24.78 44.61-24.65 45.25-24.53 45.75-24.35L45.75-24.35 46-20.43Q45.37-20.63 44.61-20.75 43.85-20.88 42.92-20.88L42.92-20.88Q40.17-20.88 38.14-19.35 36.1-17.82 35.17-14.93ZM35.37 0L31.32 0 31.32-24.4 35.27-24.4 35.07-17.2 35.37-16.9 35.37 0ZM59.67 0.63L59.67 0.63Q54.42 0.63 51.71-2.21 49-5.05 49-10.38L49-10.38 49-14.1Q49-19.4 51.72-22.23 54.45-25.05 59.67-25.05L59.67-25.05Q64.92-25.05 67.63-22.23 70.34-19.4 70.34-14.1L70.34-14.1 70.34-10.38Q70.34-5.05 67.63-2.21 64.92 0.63 59.67 0.63ZM59.67-2.68L59.67-2.68Q62.92-2.68 64.61-4.6 66.3-6.53 66.3-10.15L66.3-10.15 66.3-14.33Q66.3-17.93 64.61-19.84 62.92-21.75 59.67-21.75L59.67-21.75Q56.45-21.75 54.75-19.84 53.05-17.93 53.05-14.33L53.05-14.33 53.05-10.15Q53.05-6.53 54.75-4.6 56.45-2.68 59.67-2.68ZM87.99 0.53L87.99 0.53Q85.74 0.53 84.09-0.23 82.44-0.98 81.42-2.38 80.39-3.78 80.04-5.63L80.04-5.63 78.72-5.63 79.89-9.43Q79.99-7.23 80.88-5.76 81.77-4.3 83.29-3.58 84.82-2.85 86.74-2.85L86.74-2.85Q89.82-2.85 91.46-4.65 93.09-6.45 93.09-9.93L93.09-9.93 93.09-14.6Q93.09-18.05 91.47-19.85 89.84-21.65 86.74-21.65L86.74-21.65Q84.89-21.65 83.47-20.93 82.04-20.2 81.11-18.95 80.17-17.7 79.82-16.1L79.82-16.1 78.82-18.93 79.99-18.93Q80.39-20.6 81.36-21.96 82.32-23.33 84.01-24.14 85.69-24.95 88.17-24.95L88.17-24.95Q92.57-24.95 94.87-22.21 97.17-19.48 97.17-14.28L97.17-14.28 97.17-10.23Q97.17-4.98 94.86-2.23 92.54 0.53 87.99 0.53ZM79.99 8.6L75.97 8.6 75.97-24.4 80.02-24.4 79.84-18.53 79.89-17.28 79.89-7 79.87-6.18 79.99 0.68 79.99 8.6ZM113.07 0.55L113.07 0.55Q107.49 0.55 104.67-2.18 101.84-4.9 101.84-9.98L101.84-9.98 101.84-14.33Q101.84-19.48 104.47-22.26 107.09-25.05 112.14-25.05L112.14-25.05Q115.54-25.05 117.82-23.79 120.09-22.53 121.24-20.2 122.39-17.88 122.39-14.65L122.39-14.65 122.39-13.75Q122.39-12.95 122.33-12.15 122.27-11.35 122.17-10.58L122.17-10.58 118.44-10.58Q118.49-11.78 118.5-12.85 118.52-13.93 118.52-14.83L118.52-14.83Q118.52-17.05 117.8-18.59 117.09-20.13 115.68-20.94 114.27-21.75 112.14-21.75L112.14-21.75Q108.99-21.75 107.42-19.93 105.84-18.1 105.84-14.7L105.84-14.7 105.84-12.38 105.87-11.88 105.87-9.55Q105.87-8.03 106.32-6.8 106.77-5.58 107.73-4.69 108.69-3.8 110.18-3.34 111.67-2.88 113.72-2.88L113.72-2.88Q116.09-2.88 118.14-3.5 120.19-4.13 121.99-5.2L121.99-5.2 121.62-1.7Q119.99-0.68 117.84-0.06 115.69 0.55 113.07 0.55ZM121.32-10.58L103.97-10.58 103.97-13.63 121.32-13.63 121.32-10.58ZM131.64-14.93L131.64-14.93 130.71-18.05 131.71-18.1Q132.51-21.2 134.46-22.99 136.41-24.78 139.64-24.78L139.64-24.78Q140.44-24.78 141.08-24.65 141.71-24.53 142.21-24.35L142.21-24.35 142.46-20.43Q141.84-20.63 141.08-20.75 140.31-20.88 139.39-20.88L139.39-20.88Q136.64-20.88 134.6-19.35 132.56-17.82 131.64-14.93ZM131.84 0L127.79 0 127.79-24.4 131.74-24.4 131.54-17.2 131.84-16.9 131.84 0ZM155.31 0.5L155.31 0.5Q152.49 0.5 150.76-0.35 149.04-1.2 148.26-2.93 147.49-4.65 147.49-7.23L147.49-7.23 147.49-22.63 151.49-22.63 151.49-7.7Q151.49-5.3 152.59-4.16 153.69-3.03 156.29-3.03L156.29-3.03Q157.76-3.03 159.12-3.35 160.49-3.68 161.69-4.28L161.69-4.28 161.31-0.8Q160.14-0.2 158.56 0.15 156.99 0.5 155.31 0.5ZM161.06-20.8L143.49-20.8 143.49-24.05 161.44-24.05 161.06-20.8ZM151.39-23.65L147.51-23.65 147.49-30.5 151.56-31.03 151.39-23.65ZM174.86-3.78L177.18-3.78 175.06-2.85 182.36-24.4 186.53-24.4 175.06 8.6 170.96 8.6 174.81-2.55 176.58-1 171.98-1 164.01-24.4 168.21-24.4 174.86-3.78ZM204.66 0L194.21 0 194.21-3.43 204.26-3.43Q207.51-3.43 208.87-4.81 210.23-6.2 210.23-8.65L210.23-8.65 210.23-9.55Q210.23-12.05 208.84-13.43 207.46-14.8 204.01-14.8L204.01-14.8 194.23-14.8 194.23-18.07 203.96-18.07Q207.03-18.07 208.34-19.41 209.66-20.75 209.66-23.13L209.66-23.13 209.66-23.58Q209.66-25.93 208.39-27.24 207.13-28.55 203.93-28.55L203.93-28.55 194.13-28.55 194.13-31.95 204.31-31.95Q209.41-31.95 211.61-29.93 213.81-27.9 213.81-24.23L213.81-24.23 213.81-23.73Q213.81-20.8 212.41-19.13 211.01-17.45 208.06-17.13L208.06-17.13 208.03-16.98Q211.41-16.48 212.93-14.63 214.46-12.78 214.46-9.47L214.46-9.47 214.46-8.45Q214.46-4.48 212.16-2.24 209.86 0 204.66 0L204.66 0ZM195.48 0L191.38 0 191.38-31.95 195.48-31.95 195.48 0ZM229.65 0.63L229.65 0.63Q224.4 0.63 221.69-2.21 218.98-5.05 218.98-10.38L218.98-10.38 218.98-14.1Q218.98-19.4 221.7-22.23 224.43-25.05 229.65-25.05L229.65-25.05Q234.9-25.05 237.62-22.23 240.33-19.4 240.33-14.1L240.33-14.1 240.33-10.38Q240.33-5.05 237.62-2.21 234.9 0.63 229.65 0.63ZM229.65-2.68L229.65-2.68Q232.9-2.68 234.59-4.6 236.28-6.53 236.28-10.15L236.28-10.15 236.28-14.33Q236.28-17.93 234.59-19.84 232.9-21.75 229.65-21.75L229.65-21.75Q226.43-21.75 224.73-19.84 223.03-17.93 223.03-14.33L223.03-14.33 223.03-10.15Q223.03-6.53 224.73-4.6 226.43-2.68 229.65-2.68ZM255.65 0.63L255.65 0.63Q250.4 0.63 247.69-2.21 244.98-5.05 244.98-10.38L244.98-10.38 244.98-14.1Q244.98-19.4 247.7-22.23 250.43-25.05 255.65-25.05L255.65-25.05Q260.9-25.05 263.61-22.23 266.33-19.4 266.33-14.1L266.33-14.1 266.33-10.38Q266.33-5.05 263.61-2.21 260.9 0.63 255.65 0.63ZM255.65-2.68L255.65-2.68Q258.9-2.68 260.59-4.6 262.28-6.53 262.28-10.15L262.28-10.15 262.28-14.33Q262.28-17.93 260.59-19.84 258.9-21.75 255.65-21.75L255.65-21.75Q252.43-21.75 250.73-19.84 249.03-17.93 249.03-14.33L249.03-14.33 249.03-10.15Q249.03-6.53 250.73-4.6 252.43-2.68 255.65-2.68ZM292.65 0L287.8 0 278.15-11.38 275.57-11.38 275.57-14.53 278.15-14.53 287.4-24.4 292.2-24.4 281.12-12.63 281.12-13.6 292.65 0ZM275.97 0L271.95 0 271.95-33.13 275.97-33.13 275.97 0Z" opacity="1" transform="matrix(1,0,0,1,0,0)" fill="#1c70ec" class="wordmark-text-0" data-fill-palette-color="primary" id="text-0"></path></svg></g></svg></g></svg></g></svg></g><g></g></svg></g><defs></defs></svg><rect width="395.52" height="57.123821391484945" fill="none" stroke="none" visibility="hidden"></rect></g></svg></g></svg>